<svg xmlns="http://www.w3.org/2000/svg" height="24" viewBox="0 0 24 24" width="24">
    <path
        d="m17.75 3c1.7949254 0 3.25 1.45507456 3.25 3.25v11.5c0 1.7949254-1.4550746 3.25-3.25 3.25h-11.5c-1.79492544 0-3.25-1.4550746-3.25-3.25v-11.5c0-1.79492544 1.45507456-3.25 3.25-3.25zm-8.38133043 12.2541207h-1.738l-.06647362.1155786-.04542235.0913289c-.14177151.3411442-.01315199.7430603.31468374.9346138.32786311.191506.74113835.1061649.96868532-.1848693l.05724972-.0844194zm3.92390473-5.2300463-.871 1.492 2.6580367 4.6077091.0567886.0847301c.2259569.292269.6387615.379851.9676463.1901047.3288845-.1897469.4596858-.5909567.3197622-.9328617l-.0449277-.0915731-.5023061-.8701091.8753194.0008716.1017705-.0068466c.332796-.0451476.5962352-.3085868.6413828-.6413828l.0068467-.1017706-.0068467-.1017705c-.0451476-.332796-.3085868-.5962352-.6413828-.6413828l-.1017705-.0068467-1.7403194-.0008716zm-.0294511-2.92261884c-.327854-.19152174-.7411285-.10618201-.968669.18485587l-.0572478.08442046-.2406648.40919661-.2331375-.40567447-.0567885-.08473007c-.2033611-.26304222-.5580689-.36028786-.8667338-.23878132l-.1009122.04867675-.0847301.05678853c-.2630422.20336104-.3602878.55806886-.2387813.86673373l.0486768.10091223.6624066 1.14707462-2.18096547 3.734-1.694.0000175-.10177056.0068467c-.36607556.0496624-.64822944.3634576-.64822944.7431533 0 .3796958.28215388.693491.64822944.7431534l.10177056.0068466 6.02742387-.000143-.865-1.5-1.7314239-.0008745 2.8498184-4.87654745.0454224-.09132888c.1417714-.34114413.0131511-.74305892-.3146937-.93459661z"
        fill="#212121" />
</svg>